<svg width="239" height="85" xmlns="http://www.w3.org/2000/svg">
 <!-- Created with Method Draw - http://github.com/duopixel/Method-Draw/ -->

 <g>
  <title>background</title>
  <rect x="-1" y="-1" width="241" height="87" id="canvas_background" fill="#fff"/>
  <g id="canvasGrid" display="none">
   <rect id="svg_3" width="100%" height="100%" x="0" y="0" stroke-width="0" fill="url(#gridpattern)"/>
  </g>
 </g>
 <g>
  <title>Layer 1</title>
  <path fill="#0f9fff" stroke="#32f2d8" stroke-width="1.5" d="m43.27255,56.26147l-1.8087,-5.98083c0.53006,-0.43928 1.02757,-0.90932 1.49718,-1.41229l6.3258,1.70881c0.66722,-0.9181 1.24145,-1.89331 1.75524,-2.90586l-4.70774,-4.30496c0.2255,-0.63257 0.42079,-1.27612 0.56028,-1.93943l6.3444,-1.50235c0.0465,-0.55349 0.09067,-1.10919 0.09067,-1.67586s-0.0465,-1.12017 -0.09067,-1.67367l-6.3444,-1.50234c-0.14182,-0.66332 -0.3371,-1.30687 -0.56028,-1.93943l4.71006,-4.30497c-0.51611,-1.01035 -1.09033,-1.98775 -1.75755,-2.90585l-6.32581,1.70661c-0.46729,-0.50078 -0.96712,-0.97081 -1.49718,-1.41229l1.8087,-5.97863c-0.97177,-0.62817 -2.00631,-1.17288 -3.07804,-1.65829l-4.55663,4.44993c-0.66722,-0.21305 -1.35071,-0.39536 -2.0528,-0.52934l-1.58785,-5.9962c-0.58817,-0.04173 -1.17403,-0.08566 -1.77383,-0.08566s-1.18565,0.04393 -1.7715,0.08566l-1.59017,5.9962c-0.70209,0.13398 -1.38326,0.31629 -2.05281,0.52934l-4.55662,-4.44993c-1.06941,0.492 -2.10163,1.03451 -3.0734,1.66488l1.8087,5.97863c-0.53005,0.43928 -1.02989,0.91151 -1.49485,1.4101l-6.32813,-1.70881c-0.66722,0.9181 -1.24145,1.8955 -1.75523,2.90805l4.71006,4.30496c-0.22318,0.63257 -0.41846,1.27612 -0.56027,1.93943l-6.34673,1.50235c-0.04417,0.55349 -0.09067,1.10919 -0.09067,1.67366s0.0465,1.12017 0.09067,1.67587l6.34673,1.50234c0.14181,0.66332 0.33709,1.30687 0.56027,1.93943l-4.71006,4.30497c0.51378,1.01035 1.08801,1.98775 1.75523,2.90585l6.32813,-1.70881c0.46496,0.50298 0.9648,0.97082 1.49485,1.41229l-1.8087,5.98083c0.97177,0.62818 2.00631,1.17069 3.07572,1.65829l4.55663,-4.44993c0.66954,0.21305 1.35071,0.39755 2.05281,0.52934l1.59016,5.994c0.58586,0.04393 1.17403,0.08566 1.77383,0.08566s1.18566,-0.04392 1.77383,-0.08566l1.58785,-5.994c0.70209,-0.13398 1.38558,-0.31848 2.0528,-0.52934l4.55663,4.44993c1.06708,-0.492 2.10162,-1.03451 3.07339,-1.66268zm-13.04682,-10.54497c-4.36367,0 -7.90203,-3.34294 -7.90203,-7.46561s3.53836,-7.4634 7.90203,-7.4634s7.8997,3.34074 7.8997,7.4634s-3.53604,7.46561 -7.8997,7.46561zm36.01593,15.6055c0.04418,-1.20144 -0.13948,-2.42484 -0.5347,-3.63286l2.89206,-3.89424c-0.43706,-0.76875 -0.92992,-1.49795 -1.4902,-2.16127l-4.93325,0.9774c-0.99501,-0.79949 -2.1272,-1.42327 -3.33842,-1.86914l-1.42046,-4.56634c-0.89738,-0.14936 -1.80638,-0.23063 -2.727,-0.23282l-2.26436,4.25225c-0.64863,0.1186 -1.29725,0.28114 -1.93425,0.51176c-0.59747,0.21525 -1.15543,0.48321 -1.69013,0.77534l-4.66357,-1.79887c-0.69047,0.57546 -1.32049,1.19705 -1.89007,1.87135l2.1086,4.32253c-0.60212,1.08723 -1.01594,2.25791 -1.20657,3.48132l-4.39621,2.32819c0.04417,0.85221 0.17668,1.70442 0.38126,2.55882l4.8914,1.13994c0.53703,1.15092 1.25772,2.18103 2.12953,3.0596l-0.81834,4.69593c0.74394,0.50517 1.53438,0.94006 2.35504,1.31784l3.98704,-2.89926c1.2461,0.30969 2.55032,0.4283 3.86383,0.32946l3.37563,3.52964c0.46496,-0.1252 0.9276,-0.25918 1.38558,-0.42391c0.40684,-0.14497 0.79044,-0.31628 1.17403,-0.4898l0.08602,-4.75523c1.05779,-0.74459 1.95981,-1.64072 2.67818,-2.64887l5.02391,-0.29432c0.35337,-0.78851 0.64862,-1.60778 0.85553,-2.449l-3.88011,-3.03544zm-9.67817,4.4082c-2.7921,1.00595 -5.91664,-0.31629 -6.98373,-2.95418s0.33245,-5.59206 3.12454,-6.60021c2.7921,-1.00596 5.92129,0.31628 6.98838,2.95417c1.06476,2.63789 -0.3371,5.59206 -3.1292,6.60022l0.00001,0z" id="svg_1"/>
  <text style="cursor: move;" fill="#C97A86" stroke-width="0" x="55.5" y="44.0375" id="svg_2" font-size="24" font-family="Helvetica, Arial, sans-serif" text-anchor="start" xml:space="preserve">Ortiz Ingeniería</text>
 </g>
</svg>